HIERARCHY
ROOT sphere
{
	OFFSET 0.000000 0.000000 0.000000
	CHANNELS 6 Xposition Yposition Zposition Yrotation Xrotation Zrotation
	End Site
	{
		OFFSET 0.000000 0.000000 0.000000
	}
}
MOTION
Frames: 118
Frame Time: 0.008333334
-3.621335 0.562606 4.121036 40.201840 14.600670 34.770050 
-3.624771 0.560292 4.127008 40.265790 14.751200 35.162320 
-3.627893 0.557513 4.133002 40.523300 14.965840 35.440240 
-3.630929 0.554764 4.138151 40.722130 15.211780 36.009510 
-3.634075 0.551783 4.143122 41.140300 15.729690 36.607660 
-3.637423 0.550273 4.151665 40.313930 15.113090 36.622560 
-3.639348 0.548217 4.154345 40.887660 15.406870 37.426380 
-3.642916 0.545847 4.160202 41.113660 15.668920 37.820790 
-3.646323 0.543042 4.165982 41.032860 15.911500 38.230050 
-3.648891 0.540142 4.169391 41.637100 16.351180 38.839720 
-3.651841 0.537336 4.175406 41.678490 16.534020 39.057150 
-3.654556 0.535244 4.180017 42.003350 16.642520 40.083320 
-3.656650 0.533273 4.188627 41.356390 16.181630 40.001200 
-3.659361 0.532687 4.193017 41.681510 16.024100 40.511430 
-3.664335 0.528250 4.195103 42.051690 17.005400 40.913170 
-3.666732 0.526753 4.198692 42.405000 16.986520 41.344490 
-3.670513 0.523491 4.204089 42.634020 17.157000 41.770490 
-3.673159 0.521603 4.212662 41.475460 16.572720 41.709950 
-3.677338 0.519074 4.217365 41.020350 16.865560 41.747120 
-3.679828 0.516301 4.221146 41.364640 16.956490 42.262950 
-3.682175 0.514224 4.226056 41.856850 17.049680 42.913670 
-3.686114 0.513144 4.229058 41.830040 16.972700 43.306370 
-3.689075 0.508607 4.236769 41.500560 17.537430 43.688250 
-3.692438 0.505432 4.241435 41.945680 17.655940 44.166750 
-3.694739 0.502260 4.246515 41.923230 17.660950 44.433680 
-3.699623 0.500387 4.249945 42.076470 17.802320 45.029000 
-3.701873 0.497152 4.252228 43.061910 18.393500 45.869800 
-3.704430 0.495243 4.260703 42.072380 17.735900 45.793350 
-3.707048 0.493811 4.264067 42.514830 17.561180 46.281950 
-3.709048 0.489968 4.263843 43.907090 18.579540 47.169520 
-3.711246 0.487641 4.270098 44.034460 18.738170 48.281110 
-3.713652 0.485307 4.273445 44.383450 18.919880 48.238890 
-3.715775 0.483543 4.277406 44.325960 18.923270 48.393880 
-3.718488 0.480922 4.281600 44.471350 19.058190 49.011090 
-3.721687 0.478413 4.285843 44.663550 19.058680 49.765880 
-3.723974 0.475920 4.288766 44.814350 19.131400 49.802100 
-3.726884 0.473977 4.292601 44.932510 19.158660 50.035890 
-3.728637 0.471835 4.296733 44.963230 19.246030 50.496300 
-3.730353 0.469806 4.299495 45.103120 19.356670 50.425540 
-3.732486 0.467854 4.303319 45.247390 19.450610 50.837320 
-3.735323 0.465570 4.307107 45.370280 19.455240 51.286550 
-3.738269 0.463850 4.310788 45.542320 19.620170 51.819130 
-3.740420 0.461205 4.313272 45.656460 19.654850 52.054120 
-3.742499 0.459355 4.316814 45.721820 19.813170 52.432770 
-3.744853 0.456150 4.320325 45.832740 19.808080 52.251000 
-3.747223 0.454340 4.324533 45.972810 19.916790 52.983670 
-3.750351 0.451856 4.328657 45.946170 19.995720 53.455640 
-3.752703 0.449113 4.332079 46.092130 20.034140 53.834890 
-3.755532 0.446782 4.335392 46.352870 20.151700 54.333780 
-3.759073 0.444591 4.339597 46.447860 20.182460 54.717510 
-3.761302 0.442158 4.343174 46.469350 20.167910 54.912080 
-3.764082 0.439583 4.347042 46.639080 20.221940 55.209410 
-3.766142 0.437381 4.350168 46.834740 20.310620 55.768670 
-3.769143 0.434756 4.353489 46.845560 20.280700 56.189800 
-3.771958 0.432077 4.357573 46.932600 20.399450 56.377720 
-3.774501 0.429311 4.361058 47.254060 20.468590 56.978680 
-3.776605 0.426617 4.364896 47.272450 20.475090 57.385360 
-3.779509 0.424291 4.368671 47.528210 20.519190 57.587890 
-3.782053 0.421965 4.372094 47.518090 20.586830 58.034370 
-3.784852 0.418881 4.376220 47.791060 20.622770 58.761860 
-3.787125 0.416530 4.378883 47.898090 20.684630 59.173060 
-3.789875 0.413941 4.382354 48.037820 20.603310 59.381040 
-3.792460 0.411402 4.385136 48.142240 20.591060 59.755990 
-3.795510 0.408736 4.388598 48.112590 20.630140 59.928940 
-3.798503 0.406390 4.391898 48.355870 20.660410 60.529940 
-3.801143 0.403604 4.395319 48.528980 20.649060 60.941560 
-3.804451 0.400817 4.398417 48.645970 20.618450 61.352410 
-3.806869 0.397679 4.401396 48.840020 20.654970 61.700130 
-3.809440 0.394898 4.405146 48.985570 20.710600 62.047280 
-3.812608 0.391888 4.409264 49.052920 20.706250 62.646080 
-3.816013 0.388821 4.413295 49.123820 20.669120 62.981950 
-3.817825 0.385865 4.416724 49.320970 20.812320 63.315750 
-3.820862 0.382641 4.420999 49.510220 20.845570 63.702450 
-3.823141 0.379462 4.425644 49.653080 20.849270 64.038780 
-3.824662 0.375224 4.431266 49.886610 20.946870 64.555790 
-3.827504 0.370964 4.438398 50.370770 21.059670 65.285580 
-3.832980 0.365460 4.445012 50.726800 21.009450 66.140660 
-3.841061 0.359172 4.449467 50.987660 20.819750 67.178840 
-3.852834 0.352270 4.453010 50.920810 20.398660 67.719680 
-3.867680 0.344851 4.454424 50.807190 19.787820 68.757260 
-3.884183 0.335981 4.455993 50.631130 19.238000 69.951570 
-3.902596 0.326900 4.458439 50.167350 18.732280 71.722430 
-3.921722 0.316851 4.460767 49.436110 18.284770 72.629370 
-3.938224 0.306792 4.463420 49.012420 17.919760 74.493460 
-3.953465 0.296249 4.466826 48.816890 17.533160 75.671320 
-3.964841 0.287730 4.470974 48.762680 17.175160 76.990200 
-3.971817 0.280999 4.476613 48.776430 17.073720 77.857440 
-3.975262 0.275117 4.485930 48.907470 17.189790 78.611660 
-3.972324 0.271143 4.499078 49.481440 17.350810 79.238230 
-3.966201 0.268362 4.516445 50.149840 17.470770 79.691050 
-3.959655 0.265743 4.533844 51.084320 17.589510 79.788530 
-3.954385 0.264085 4.549090 51.879200 17.727390 80.418810 
-3.951850 0.261945 4.558053 52.361140 17.871890 80.435580 
-3.953299 0.260936 4.562423 52.310750 17.961230 80.728290 
-3.957524 0.261014 4.559584 51.948850 17.895360 80.614650 
-3.964286 0.262120 4.553088 51.231960 17.861400 80.515750 
-3.971803 0.263507 4.543333 50.474060 17.826110 80.630840 
-3.978479 0.265714 4.531663 49.449290 17.766300 80.623410 
-3.983397 0.269685 4.521693 48.442020 17.921750 80.535790 
-3.984509 0.274837 4.513350 47.585590 18.023760 80.946750 
-3.982766 0.280803 4.506430 47.208770 18.301170 81.284880 
-3.978099 0.288172 4.500719 46.644950 18.574260 81.390480 
-3.969973 0.296456 4.493048 46.294750 19.014450 81.586870 
-3.962233 0.306103 4.484787 45.855330 19.527980 81.619590 
-3.953830 0.317613 4.473801 45.470810 20.078990 81.871410 
-3.946185 0.330409 4.459230 44.848010 20.606630 82.073680 
-3.939394 0.346223 4.442680 43.913440 20.990870 81.984270 
-3.934135 0.365469 4.425995 42.737980 21.510940 81.858490 
-3.926476 0.386815 4.408527 41.860350 22.036220 81.961370 
-3.918674 0.411407 4.390877 40.659240 22.530700 81.717290 
-3.908742 0.436184 4.371904 39.779370 23.165950 81.822490 
-3.897697 0.461781 4.353839 38.878280 23.877190 82.386050 
-3.884252 0.486165 4.334383 38.307300 24.551890 83.070890 
-3.869502 0.511034 4.314995 37.835090 25.268640 83.735500 
-3.853710 0.535716 4.294647 37.313100 25.924060 84.500060 
-3.836516 0.560860 4.274380 36.750840 26.606180 85.440320 
-3.817348 0.586459 4.251302 37.001670 27.414040 86.785260 
-3.798064 0.612992 4.228621 36.559410 28.110730 87.716900 
